<svg viewBox="0 0 17 16" fill="none" xmlns="http://www.w3.org/2000/svg">
<path d="M2.29611 5.29263C2.17944 4.76661 2.19735 4.21961 2.34819 3.70236C2.49903 3.18512 2.77791 2.71436 3.15897 2.33375C3.54003 1.95314 4.01094 1.67499 4.52803 1.5251C5.04511 1.37521 5.59165 1.35842 6.11694 1.4763C6.40607 1.0237 6.80438 0.651235 7.27514 0.393234C7.74591 0.135233 8.27399 0 8.81071 0C9.34743 0 9.87551 0.135233 10.3463 0.393234C10.817 0.651235 11.2154 1.0237 11.5045 1.4763C12.0306 1.35791 12.578 1.37462 13.096 1.52487C13.6139 1.67513 14.0854 1.95405 14.4667 2.3357C14.848 2.71734 15.1267 3.18931 15.2768 3.70769C15.4269 4.22608 15.4436 4.77405 15.3253 5.30063C15.7775 5.59002 16.1496 5.98869 16.4074 6.45989C16.6652 6.93109 16.8003 7.45966 16.8003 7.99686C16.8003 8.53407 16.6652 9.06264 16.4074 9.53384C16.1496 10.005 15.7775 10.4037 15.3253 10.6931C15.4431 11.2189 15.4263 11.7659 15.2766 12.2835C15.1268 12.801 14.8489 13.2724 14.4686 13.6538C14.0884 14.0352 13.6181 14.3143 13.1013 14.4653C12.5845 14.6163 12.038 14.6342 11.5125 14.5174C11.2237 14.9718 10.8251 15.3458 10.3535 15.605C9.88196 15.8641 9.35268 16 8.81471 16C8.27673 16 7.74745 15.8641 7.27588 15.605C6.80431 15.3458 6.40569 14.9718 6.11694 14.5174C5.59165 14.6353 5.04511 14.6185 4.52803 14.4686C4.01094 14.3187 3.54003 14.0406 3.15897 13.66C2.77791 13.2794 2.49903 12.8086 2.34819 12.2914C2.19735 11.7741 2.17944 11.2271 2.29611 10.7011C1.84045 10.4125 1.46513 10.0132 1.20505 9.54037C0.944975 9.06756 0.808594 8.5366 0.808594 7.99686C0.808594 7.45713 0.944975 6.92617 1.20505 6.45336C1.46513 5.98055 1.84045 5.58126 2.29611 5.29263Z" fill="#0F1021"/>
<path d="M2.29611 5.29263C2.17944 4.76661 2.19735 4.21961 2.34819 3.70236C2.49903 3.18512 2.77791 2.71436 3.15897 2.33375C3.54003 1.95314 4.01094 1.67499 4.52803 1.5251C5.04511 1.37521 5.59165 1.35842 6.11694 1.4763C6.40607 1.0237 6.80438 0.651235 7.27514 0.393234C7.74591 0.135233 8.27399 0 8.81071 0C9.34743 0 9.87551 0.135233 10.3463 0.393234C10.817 0.651235 11.2154 1.0237 11.5045 1.4763C12.0306 1.35791 12.578 1.37462 13.096 1.52487C13.6139 1.67513 14.0854 1.95405 14.4667 2.3357C14.848 2.71734 15.1267 3.18931 15.2768 3.70769C15.4269 4.22608 15.4436 4.77405 15.3253 5.30063C15.7775 5.59002 16.1496 5.98869 16.4074 6.45989C16.6652 6.93109 16.8003 7.45966 16.8003 7.99686C16.8003 8.53407 16.6652 9.06264 16.4074 9.53384C16.1496 10.005 15.7775 10.4037 15.3253 10.6931C15.4431 11.2189 15.4263 11.7659 15.2766 12.2835C15.1268 12.801 14.8489 13.2724 14.4686 13.6538C14.0884 14.0352 13.6181 14.3143 13.1013 14.4653C12.5845 14.6163 12.038 14.6342 11.5125 14.5174C11.2237 14.9718 10.8251 15.3458 10.3535 15.605C9.88196 15.8641 9.35268 16 8.81471 16C8.27673 16 7.74745 15.8641 7.27588 15.605C6.80431 15.3458 6.40569 14.9718 6.11694 14.5174C5.59165 14.6353 5.04511 14.6185 4.52803 14.4686C4.01094 14.3187 3.54003 14.0406 3.15897 13.66C2.77791 13.2794 2.49903 12.8086 2.34819 12.2914C2.19735 11.7741 2.17944 11.2271 2.29611 10.7011C1.84045 10.4125 1.46513 10.0132 1.20505 9.54037C0.944975 9.06756 0.808594 8.5366 0.808594 7.99686C0.808594 7.45713 0.944975 6.92617 1.20505 6.45336C1.46513 5.98055 1.84045 5.58126 2.29611 5.29263Z" fill="url(#paint0_radial_932_1090)"/>
<path d="M5.80664 8L7.47244 10L10.804 6" stroke="white" stroke-width="2" stroke-linecap="round" stroke-linejoin="round"/>
<defs>
<radialGradient id="paint0_radial_932_1090" cx="0" cy="0" r="1" gradientUnits="userSpaceOnUse" gradientTransform="translate(8.80443 8) rotate(1.00561) scale(37.9861 22.8035)">
<stop stop-color="#4E47A6"/>
<stop offset="1" stop-color="#101122" stop-opacity="0"/>
</radialGradient>
</defs>
</svg>
