<svg width="39" height="40" viewBox="0 0 39 40" fill="none" xmlns="http://www.w3.org/2000/svg">
<path d="M11.5732 18.7371H10.307C10.139 18.7371 9.978 18.8038 9.85927 18.9226C9.74053 19.0414 9.67383 19.2025 9.67383 19.3705C9.67383 19.5385 9.74053 19.6997 9.85927 19.8184C9.978 19.9372 10.139 20.004 10.307 20.004H11.5732C11.7411 20.004 11.9022 19.9372 12.0209 19.8184C12.1397 19.6997 12.2064 19.5385 12.2064 19.3705C12.2064 19.2025 12.1397 19.0414 12.0209 18.9226C11.9022 18.8038 11.7411 18.7371 11.5732 18.7371Z" fill="#FC6500" stroke="#FC6500" stroke-width="0.3"/>
<path d="M16.6331 20.004H17.8994C18.0673 20.004 18.2284 19.9372 18.3471 19.8184C18.4658 19.6997 18.5325 19.5385 18.5325 19.3705C18.5325 19.2025 18.4658 19.0414 18.3471 18.9226C18.2284 18.8038 18.0673 18.7371 17.8994 18.7371H16.6331C16.4652 18.7371 16.3042 18.8038 16.1854 18.9226C16.0667 19.0414 16 19.2025 16 19.3705C16 19.5385 16.0667 19.6997 16.1854 19.8184C16.3042 19.9372 16.4652 20.004 16.6331 20.004Z" fill="#FC6500" stroke="#FC6500" stroke-width="0.3"/>
<path d="M14.1308 22.1048C14.184 22.2642 14.2982 22.3959 14.4485 22.4711C14.5988 22.5462 14.7727 22.5585 14.9321 22.5054C15.0915 22.4523 15.2233 22.338 15.2984 22.1877C15.3735 22.0374 15.3859 21.8635 15.3327 21.7041L14.6993 19.8037C14.6729 19.7248 14.6313 19.6518 14.5768 19.589C14.5223 19.5262 14.456 19.4747 14.3816 19.4375C14.3072 19.4003 14.2262 19.3781 14.1432 19.3722C14.0602 19.3663 13.9769 19.3768 13.898 19.4031C13.819 19.4294 13.7461 19.471 13.6832 19.5255C13.6204 19.58 13.5689 19.6464 13.5317 19.7208C13.4945 19.7952 13.4723 19.8762 13.4664 19.9592C13.4605 20.0422 13.4711 20.1255 13.4974 20.2044L14.1308 22.1048Z" fill="#FC6500" stroke="#FC6500" stroke-width="0.3"/>
<path d="M10.9303 21.2708C11.2802 21.2708 11.5638 20.9872 11.5638 20.6374C11.5638 20.2875 11.2802 20.0039 10.9303 20.0039C10.5805 20.0039 10.2969 20.2875 10.2969 20.6374C10.2969 20.9872 10.5805 21.2708 10.9303 21.2708Z" fill="#FC6500" stroke="#FC6500" stroke-width="0.3"/>
<path d="M17.2604 21.2708C17.6103 21.2708 17.8939 20.9872 17.8939 20.6374C17.8939 20.2875 17.6103 20.0039 17.2604 20.0039C16.9106 20.0039 16.627 20.2875 16.627 20.6374C16.627 20.9872 16.9106 21.2708 17.2604 21.2708Z" fill="#FC6500" stroke="#FC6500" stroke-width="0.3"/>
<path d="M13.4574 25.0716H14.7236C14.8915 25.0716 15.0526 25.0049 15.1713 24.8861C15.29 24.7673 15.3567 24.6062 15.3567 24.4381C15.3567 24.2701 15.29 24.109 15.1713 23.9902C15.0526 23.8714 14.8915 23.8047 14.7236 23.8047H13.4574C13.2894 23.8047 13.1284 23.8714 13.0097 23.9902C12.8909 24.109 12.8242 24.2701 12.8242 24.4381C12.8242 24.6062 12.8909 24.7673 13.0097 24.8861C13.1284 25.0049 13.2894 25.0716 13.4574 25.0716Z" fill="#FC6500" stroke="#FC6500" stroke-width="0.3"/>
<path d="M22.8675 29.6511C21.553 28.8294 20.0537 28.3502 18.5064 28.2573C18.3892 28.0099 18.2197 27.7908 18.0096 27.6153L17.0939 26.8519C17.9108 26.4109 18.6212 25.796 19.1749 25.0507C19.7287 24.3054 20.1125 23.4476 20.2992 22.5379H20.4279C20.9853 22.5381 21.5272 22.3542 21.9695 22.0148C22.4118 21.6754 22.7298 21.1994 22.8741 20.6607C23.0184 20.122 22.981 19.5507 22.7677 19.0355C22.5543 18.5202 22.177 18.0899 21.6942 17.8111V15.8322C21.6942 15.465 21.6219 15.1014 21.4814 14.7621C21.341 14.4229 21.1351 14.1146 20.8756 13.855C20.6161 13.5953 20.308 13.3893 19.9689 13.2488C19.6298 13.1083 19.2664 13.036 18.8994 13.036H18.8331C18.8334 12.8488 18.7968 12.6634 18.7253 12.4904C18.6538 12.3175 18.5489 12.1604 18.4165 12.0281L18.0106 11.6219C16.8885 10.4993 15.3668 9.86865 13.78 9.86865C12.1932 9.86865 10.6715 10.4993 9.54944 11.6219L7.8739 13.2983C7.84508 13.3272 7.806 13.3433 7.76526 13.3433C7.72451 13.3433 7.68543 13.3272 7.65661 13.2983C7.45803 13.0997 7.20503 12.9644 6.9296 12.9096C6.65417 12.8548 6.36868 12.8829 6.10923 12.9904C5.84979 13.0979 5.62803 13.28 5.47201 13.5136C5.31599 13.7473 5.23271 14.0219 5.23271 14.3029V14.8595C5.23132 15.3689 5.33093 15.8736 5.52578 16.3442C5.72063 16.8149 6.00684 17.2422 6.36786 17.6014C6.42915 17.6627 6.4927 17.7209 6.55727 17.7775C6.06225 18.0463 5.6709 18.4724 5.44511 18.9886C5.21932 19.5049 5.17198 20.0817 5.31057 20.6278C5.44916 21.174 5.76577 21.6583 6.21034 22.0043C6.6549 22.3502 7.20205 22.538 7.76524 22.5379H7.89396C8.07702 23.4293 8.4493 24.2709 8.98559 25.0058C9.52188 25.7407 10.2097 26.3519 11.0025 26.7978C10.7995 26.9759 10.6393 27.1975 10.5338 27.4461C10.4282 27.6947 10.3801 27.9639 10.3929 28.2337C10.3612 28.236 10.3297 28.2391 10.2976 28.2391H10.2465C8.17586 28.2391 6.16467 28.9316 4.53261 30.2065C2.90055 31.4814 1.74128 33.2656 1.23907 35.2754C0.948111 36.4405 0.800917 37.6368 0.800781 38.8377V39.0079H2.06705V38.8377C2.06717 37.7404 2.20167 36.6473 2.46755 35.5827C2.95482 33.6189 4.16951 31.9135 5.86584 30.8117V33.9402C5.86584 34.0437 5.8912 34.1457 5.93969 34.2371C5.98819 34.3286 6.05834 34.4067 6.14402 34.4648C6.2297 34.5228 6.32829 34.559 6.43116 34.57C6.53403 34.5811 6.63805 34.5668 6.73412 34.5284L7.57654 34.1912L5.34717 37.3777L6.38451 38.1043L10.4852 32.2431L14.4024 34.4828C14.479 34.5266 14.5457 34.5859 14.5981 34.657C14.6504 34.7281 14.6873 34.8094 14.7064 34.8956C14.7255 34.9819 14.7264 35.0711 14.709 35.1577C14.6916 35.2443 14.6562 35.3263 14.6053 35.3984L12.7609 38.0088L13.7949 38.7401L15.6393 36.1297C15.8756 35.7957 15.9977 35.3942 15.9873 34.9851C15.9769 34.576 15.8345 34.1812 15.5815 33.8597L18.3132 30.2155C18.4651 30.0129 18.5748 29.782 18.636 29.5363C18.7521 29.5464 18.8678 29.5594 18.9831 29.5744L17.7055 35.1134C17.4112 36.3906 17.2625 37.6971 17.2622 39.0079H18.5285C18.5287 37.793 18.6665 36.5821 18.9394 35.3982L19.336 33.6787L21.459 34.5284C21.5551 34.5668 21.6591 34.5811 21.762 34.5701C21.8648 34.559 21.9634 34.5228 22.0491 34.4648C22.1348 34.4068 22.205 34.3286 22.2535 34.2371C22.3019 34.1457 22.3273 34.0438 22.3273 33.9402V30.8117C24.0236 31.9135 25.2383 33.6189 25.7256 35.5827C25.9915 36.6473 26.126 37.7404 26.1261 38.8377V39.0079H27.3923V38.8377C27.3922 37.6368 27.245 36.4405 26.9541 35.2754C26.3753 32.94 24.9093 30.9223 22.8675 29.6511ZM20.4279 21.271V18.7371C20.7637 18.7371 21.0858 18.8706 21.3233 19.1082C21.5607 19.3458 21.6942 19.668 21.6942 20.0041C21.6942 20.3401 21.5607 20.6623 21.3233 20.8999C21.0858 21.1375 20.7637 21.271 20.4279 21.271ZM6.49897 14.3029C6.49898 14.2725 6.508 14.2428 6.52489 14.2175C6.54178 14.1922 6.56578 14.1725 6.59386 14.1609C6.62193 14.1493 6.65282 14.1462 6.68263 14.1522C6.71243 14.1581 6.7398 14.1727 6.76129 14.1942C7.02778 14.4602 7.38884 14.6096 7.76526 14.6096C8.14168 14.6096 8.50274 14.4602 8.76923 14.1942L10.4448 12.5178C10.8828 12.0796 11.4028 11.732 11.975 11.4948C12.5473 11.2576 13.1606 11.1356 13.78 11.1356C14.3994 11.1356 15.0127 11.2576 15.585 11.4948C16.1572 11.732 16.6772 12.0796 17.1152 12.5178L17.5212 12.924C17.5508 12.9537 17.5675 12.994 17.5675 13.036C17.5675 13.0779 17.5508 13.1182 17.5212 13.1479L16.8145 13.8549C16.6958 13.9737 16.6291 14.1349 16.6291 14.3029C16.6291 14.4709 16.6958 14.632 16.8145 14.7508C16.9332 14.8696 17.0943 14.9364 17.2622 14.9364C17.4301 14.9364 17.5912 14.8696 17.7099 14.7508L18.1576 14.3029H18.8994C19.3048 14.3029 19.6935 14.464 19.9802 14.7508C20.2668 15.0376 20.4279 15.4266 20.4279 15.8322V17.4702H19.5775C19.328 17.4709 19.0808 17.4221 18.8502 17.3265C18.6197 17.2309 18.4104 17.0906 18.2344 16.9135L16.4436 15.1219C16.3249 15.0031 16.1639 14.9364 15.996 14.9364C15.8281 14.9364 15.667 15.0031 15.5483 15.1219C14.8059 15.8687 13.9228 16.4608 12.9502 16.8639C11.9776 17.267 10.9347 17.4731 9.88189 17.4702H9.10833C8.41629 17.4702 7.75259 17.1951 7.26324 16.7055C6.7739 16.2159 6.49898 15.5519 6.49897 14.8595V14.3029ZM6.49897 20.0041C6.49936 19.6682 6.63289 19.3461 6.87028 19.1086C7.10767 18.8711 7.42952 18.7375 7.76524 18.7371V21.271C7.42952 21.2706 7.10767 21.137 6.87028 20.8995C6.63289 20.662 6.49936 20.3399 6.49897 20.0041ZM9.0315 21.271V18.7353C9.05713 18.7358 9.08262 18.7371 9.10833 18.7371H9.88189C12.1254 18.7435 14.2941 17.9306 15.981 16.4507L17.339 17.8094C17.8301 18.3032 18.4712 18.6198 19.1616 18.7093V21.271C19.1606 22.279 18.8596 23.264 18.2971 24.1003C17.7346 24.9366 16.9359 25.5865 16.003 25.9671C15.5842 25.7066 15.0806 25.6194 14.5988 25.7239C14.1169 25.8284 13.6946 26.1164 13.4212 26.527L13.2878 26.7272L13.1808 26.6557C13.0625 26.5768 12.9353 26.5121 12.802 26.4628C12.7731 26.368 12.7225 26.2813 12.654 26.2097C12.5856 26.1381 12.5013 26.0835 12.408 26.0504C11.421 25.6998 10.5666 25.0523 9.96206 24.1965C9.35752 23.3408 9.03247 22.3189 9.0315 21.271ZM10.2976 29.506C10.4759 29.5059 10.6537 29.487 10.828 29.4496L10.8334 29.4604L9.77531 31.0485L9.60586 31.2907L9.20995 29.5742C9.55362 29.5291 9.89984 29.5063 10.2465 29.506H10.2976ZM7.13211 30.1369C7.40592 30.0212 7.68596 29.9209 7.97093 29.8364L8.56902 32.4295L7.13211 33.0046V30.1369ZM17.3002 29.4553L14.5586 33.1128L11.2008 31.1931L12.0908 29.8574C12.1527 29.7644 12.189 29.6568 12.196 29.5453C12.2029 29.4339 12.1802 29.3225 12.1303 29.2227L11.7124 28.3864C11.6603 28.2821 11.6441 28.1635 11.6663 28.049C11.6886 27.9345 11.748 27.8306 11.8354 27.7534C11.9227 27.6763 12.0332 27.6301 12.1494 27.6223C12.2657 27.6144 12.3814 27.6452 12.4783 27.7098L13.1122 28.1327C13.252 28.2259 13.4229 28.2597 13.5876 28.2267C13.7522 28.1938 13.8971 28.0968 13.9902 27.957L14.4748 27.2297C14.5241 27.1558 14.5884 27.093 14.6635 27.0455C14.7386 26.9981 14.8228 26.9669 14.9108 26.9542C14.9987 26.9414 15.0883 26.9473 15.1738 26.9715C15.2593 26.9957 15.3387 27.0376 15.407 27.0945L17.199 28.5886C17.3238 28.6925 17.4038 28.8404 17.4227 29.0017C17.4415 29.1631 17.3977 29.3254 17.3002 29.4553ZM19.6241 32.4295L20.2223 29.8361C20.5072 29.9207 20.7872 30.0212 21.061 30.1369V33.0046L19.6241 32.4295Z" fill="#FC6500" stroke="#FC6500" stroke-width="0.3"/>
<path d="M31.5027 1H29.6033C28.3259 1.00033 27.0711 1.33678 25.9648 1.97559C24.8585 2.6144 23.9395 3.5331 23.3002 4.6395C22.6609 5.74591 22.3236 7.00109 22.3223 8.27911C22.3209 9.55712 22.6556 10.813 23.2926 11.9207L22.3548 14.7359C22.323 14.8311 22.3144 14.9325 22.3295 15.0317C22.3446 15.1309 22.3831 15.2252 22.4418 15.3066C22.5004 15.388 22.5776 15.4543 22.6669 15.5C22.7562 15.5458 22.855 15.5696 22.9554 15.5696C22.9902 15.5696 23.0251 15.5667 23.0595 15.5611L26.6779 14.9578C27.5998 15.3636 28.5962 15.572 29.6033 15.5696H31.5027C33.4337 15.5696 35.2857 14.8021 36.6511 13.436C38.0166 12.0698 38.7837 10.2169 38.7837 8.28482C38.7837 6.35276 38.0166 4.49984 36.6511 3.13367C35.2857 1.76751 33.4337 1 31.5027 1ZM35.756 12.5404C35.1987 13.1009 34.5359 13.5453 33.8058 13.8478C33.0757 14.1503 32.2929 14.3049 31.5027 14.3027H29.6033C28.7151 14.3049 27.8376 14.1087 27.0349 13.7284C26.9183 13.6733 26.7876 13.6551 26.6604 13.6763L23.8886 14.1384L24.5865 12.0435C24.6162 11.9543 24.6257 11.8595 24.6142 11.7661C24.6028 11.6727 24.5707 11.583 24.5203 11.5036C23.9445 10.5934 23.6234 9.54525 23.5906 8.46855C23.5578 7.39185 23.8145 6.32608 24.3337 5.38245C24.853 4.43883 25.6159 3.65195 26.5428 3.10394C27.4697 2.55592 28.5267 2.26686 29.6033 2.26692H31.5027C32.6923 2.26699 33.8552 2.61998 34.8443 3.28126C35.8334 3.94253 36.6043 4.8824 37.0595 5.98201C37.5148 7.08163 37.6339 8.29162 37.4019 9.45899C37.1699 10.6264 36.5971 11.6987 35.756 12.5404Z" fill="#FC6500" stroke="#FC6500" stroke-width="0.3"/>
<path d="M30.5593 3.19459C30.182 3.19356 29.8083 3.26741 29.4598 3.41185C29.1113 3.55629 28.7948 3.76845 28.5288 4.03607C28.525 4.03985 28.5212 4.04372 28.5175 4.04759L28.2216 4.35914C27.8953 4.68908 27.713 5.13503 27.7149 5.5992C27.7167 6.06337 27.9024 6.50788 28.2312 6.83526C28.5601 7.16265 29.0053 7.34619 29.4693 7.34565C29.9332 7.34511 30.378 7.16052 30.7061 6.83236L31.007 6.53133C31.0658 6.4725 31.1124 6.40267 31.1442 6.32582C31.1761 6.24896 31.1924 6.16659 31.1924 6.0834C31.1924 6.00021 31.1761 5.91783 31.1443 5.84097C31.1124 5.76412 31.0658 5.69428 31.007 5.63545C30.9482 5.57663 30.8784 5.52996 30.8016 5.49812C30.7248 5.46628 30.6425 5.4499 30.5593 5.44989C30.4762 5.44989 30.3938 5.46627 30.317 5.4981C30.2402 5.52993 30.1704 5.57659 30.1116 5.63541L29.8107 5.93645C29.7599 5.98734 29.6984 6.0263 29.6307 6.05053C29.5629 6.07476 29.4907 6.08365 29.4191 6.07657C29.3476 6.06948 29.2784 6.04659 29.2168 6.00955C29.1551 5.97251 29.1025 5.92224 29.0626 5.86237C29.0005 5.76874 28.9726 5.65653 28.9836 5.54471C28.9947 5.4329 29.044 5.32833 29.1233 5.2487C29.1271 5.24491 29.1308 5.24105 29.1345 5.23718L29.4294 4.92671C29.7314 4.62717 30.1397 4.45972 30.565 4.46111C30.9902 4.46251 31.3975 4.63263 31.6974 4.93415C31.9974 5.23567 32.1656 5.64395 32.165 6.06938C32.1645 6.49482 31.9952 6.90265 31.6944 7.20338L31.0069 7.89128C30.6632 8.23332 30.3907 8.64017 30.2052 9.08828C30.0197 9.5364 29.9248 10.0169 29.9262 10.5019C29.9262 10.6699 29.9929 10.831 30.1116 10.9498C30.2303 11.0686 30.3914 11.1354 30.5593 11.1354C30.7272 11.1354 30.8883 11.0686 31.007 10.9498C31.1257 10.831 31.1924 10.6699 31.1924 10.5019C31.1916 10.1833 31.2539 9.86771 31.3757 9.57336C31.4976 9.27902 31.6766 9.01178 31.9023 8.78711L32.5898 8.09928C32.9914 7.69748 33.2649 7.18554 33.3757 6.62821C33.4865 6.07088 33.4297 5.49319 33.2123 4.9682C32.995 4.44321 32.6269 3.99449 32.1547 3.67879C31.6824 3.36309 31.1272 3.19458 30.5593 3.19459Z" fill="#FC6500" stroke="#FC6500" stroke-width="0.3"/>
<path d="M30.5612 13.0357C30.911 13.0357 31.1947 12.7521 31.1947 12.4023C31.1947 12.0524 30.911 11.7688 30.5612 11.7688C30.2113 11.7688 29.9277 12.0524 29.9277 12.4023C29.9277 12.7521 30.2113 13.0357 30.5612 13.0357Z" fill="#FC6500" stroke="#FC6500" stroke-width="0.3"/>
</svg>
