<svg width="34" height="34" viewBox="0 0 34 34" fill="none" xmlns="http://www.w3.org/2000/svg">
<path d="M29.5507 6.24219C29.8808 6.68226 30.5052 6.77151 30.9452 6.44141L33.6015 4.44922C34.0416 4.11911 34.1308 3.49476 33.8007 3.05469C33.4706 2.61461 32.8463 2.52536 32.4062 2.85547L29.7499 4.84766C29.3099 5.17776 29.2207 5.80211 29.5507 6.24219Z" fill="#FC1CCF"/>
<path d="M33.6015 18.793L30.9452 16.8008C30.5052 16.4707 29.8808 16.5599 29.5507 17C29.2206 17.4401 29.3099 18.0644 29.7499 18.3945L32.4062 20.3867C32.8463 20.7168 33.4706 20.6276 33.8007 20.1875C34.1308 19.7474 34.0416 19.1231 33.6015 18.793Z" fill="#FC1CCF"/>
<path d="M4.25006 4.84766L1.59381 2.85547C1.15374 2.52536 0.529387 2.61461 0.199282 3.05469C-0.130824 3.49476 -0.0415738 4.11911 0.3985 4.44922L3.05475 6.44141C3.49482 6.77151 4.11918 6.68226 4.44928 6.24219C4.77932 5.80211 4.69014 5.17776 4.25006 4.84766Z" fill="#FC1CCF"/>
<path d="M4.44928 17C4.11918 16.5599 3.49482 16.4707 3.05475 16.8008L0.3985 18.793C-0.0415738 19.1231 -0.130824 19.7474 0.199282 20.1875C0.529387 20.6276 1.15374 20.7168 1.59381 20.3867L4.25006 18.3945C4.69014 18.0644 4.77932 17.4401 4.44928 17Z" fill="#FC1CCF"/>
<path d="M17 0C10.5921 0 5.3789 5.21322 5.3789 11.6211C5.3789 14.573 6.49772 17.3875 8.52922 19.5461C9.35252 20.421 9.80594 21.5088 9.80594 22.6091V24.4596C9.80594 25.6343 10.5418 26.6404 11.5768 27.0411V30.3477C11.5768 32.3616 13.2152 34 15.2291 34H18.7708C20.7847 34 22.4231 32.3616 22.4231 30.3477V27.0411C23.4581 26.6404 24.194 25.6343 24.194 24.4596V22.6091C24.194 21.5088 24.6474 20.421 25.4707 19.5461C27.5023 17.3875 28.6211 14.573 28.6211 11.6211C28.6211 5.21322 23.4079 0 17 0ZM20.431 30.3477C20.431 31.2631 19.6863 32.0078 18.7709 32.0078H15.2292C14.3138 32.0078 13.5691 31.2631 13.5691 30.3477V27.2266H20.431V30.3477ZM24.0199 18.1808C22.8475 19.4267 22.2019 20.9993 22.2019 22.6091V24.4596C22.2019 24.8869 21.8543 25.2344 21.4271 25.2344H12.5729C12.1457 25.2344 11.7981 24.8869 11.7981 24.4596V22.6091C11.7981 20.9994 11.1525 19.4267 9.97999 18.1808C8.52802 16.638 7.63904 14.6915 7.42282 12.6172H10.6914C11.2415 12.6172 11.6875 12.1712 11.6875 11.6211V10.957C11.6875 10.4078 12.1343 9.96094 12.6836 9.96094C13.2328 9.96094 13.6797 10.4078 13.6797 10.957V11.6211C13.6797 12.1712 14.1257 12.6172 14.6758 12.6172H18.3464C18.5122 14.1093 19.7809 15.2734 21.3164 15.2734C22.8519 15.2734 24.1207 14.1093 24.2864 12.6172H26.5772C26.3609 14.6915 25.4719 16.638 24.0199 18.1808ZM23.3086 10.625C22.7585 10.625 22.3125 11.071 22.3125 11.6211V12.2852C22.3125 12.8344 21.8656 13.2812 21.3164 13.2812C20.7672 13.2812 20.3203 12.8344 20.3203 12.2852V11.6211C20.3203 11.071 19.8743 10.625 19.3242 10.625H15.6535C15.4878 9.13292 14.2191 7.96875 12.6836 7.96875C11.1481 7.96875 9.87932 9.13292 9.71364 10.625H7.42229C7.92226 5.78186 12.0269 1.99219 17 1.99219C21.9731 1.99219 26.0777 5.78186 26.5777 10.625H23.3086Z" fill="#FC1CCF"/>
</svg>
